<?xml version="1.0" encoding="utf-8"?>
<!-- Generator: Adobe Illustrator 25.4.1, SVG Export Plug-In . SVG Version: 6.00 Build 0)  -->
<svg version="1.1" id="Layer_1" xmlns="http://www.w3.org/2000/svg" xmlns:xlink="http://www.w3.org/1999/xlink" x="0px" y="0px"
	 width="35px" height="27.7px" viewBox="0 0 35 27.7" style="enable-background:new 0 0 35 27.7;" xml:space="preserve">
<style type="text/css">
	.st0{fill:#FFFFFF;}
</style>
<g>
	<g>
		<g>
			<rect class="st0" width="26.7" height="1.8"/>
			<path class="st0" d="M16,5.2H0V7h14.4C14.8,6.3,15.4,5.7,16,5.2z"/>
			<path class="st0" d="M0,10.3v1.8h12.3c0.1-0.6,0.2-1.2,0.4-1.8H0z"/>
			<path class="st0" d="M0,15.5v1.8h12.7c-0.2-0.6-0.3-1.2-0.4-1.8H0z"/>
			<path class="st0" d="M14.5,20.7H0v1.8h16.1C15.5,22,14.9,21.4,14.5,20.7z"/>
			<rect y="25.9" class="st0" width="26.7" height="1.8"/>
		</g>
		<g>
			<path class="st0" d="M35,19.9l-2.8-1.6c0.7-1.3,1.1-2.9,1.1-4.5c0-5.3-4.3-9.7-9.7-9.7S14,8.4,14,13.8s4.3,9.7,9.7,9.7
				c3,0,5.8-1.4,7.5-3.6l2.9,1.7L35,19.9z M23.7,21.6c-4.3,0-7.8-3.5-7.8-7.8s3.5-7.8,7.8-7.8s7.8,3.5,7.8,7.8S28,21.6,23.7,21.6z"
				/>
			<path class="st0" d="M25.9,8.1c-0.7-0.3-1.3-0.4-2.1-0.4c-0.5,0-0.9,0.4-0.9,0.9c0,0.5,0.4,0.9,0.9,0.9c0.5,0,0.9,0.1,1.3,0.3
				c0.5,0.2,1,0.6,1.3,1c0.2,0.2,0.4,0.3,0.7,0.3c0.2,0,0.4-0.1,0.6-0.2c0.4-0.3,0.4-0.9,0.1-1.3C27.3,9,26.6,8.5,25.9,8.1z"/>
		</g>
	</g>
</g>
</svg>
