<svg id="Layer_1" data-name="Layer 1" xmlns="http://www.w3.org/2000/svg" width="98" height="31.42" viewBox="0 0 98 31.42"><polygon points="21.44 0 21.41 14.37 8.88 14.37 8.88 19.57 21.4 19.57 21.38 31.42 31.6 31.42 31.67 0 21.44 0" style="fill:#e6e7e8"/><polygon points="87.78 19.57 76.5 19.57 85.2 0 74.97 0 61.01 31.42 71.23 31.42 74.19 24.76 87.78 24.76 87.78 19.57" style="fill:#a7a9ac"/><polygon points="98 31.42 85.2 0 74.97 0 87.77 31.42 98 31.42" style="fill:#e6e7e8"/><rect width="10.23" height="31.42" style="fill:#a7a9ac"/><polygon points="55.38 31.42 55.44 3.81 45.21 3.81 45.15 31.42 55.38 31.42" style="fill:#a7a9ac"/><rect x="35.82" width="28.94" height="7.62" style="fill:#e6e7e8"/></svg>