<?xml version="1.0" encoding="utf-8"?>
<!-- Generator: Adobe Illustrator 24.3.0, SVG Export Plug-In . SVG Version: 6.00 Build 0)  -->
<svg version="1.1" id="Layer_1" xmlns="http://www.w3.org/2000/svg" xmlns:xlink="http://www.w3.org/1999/xlink" x="0px" y="0px"
	 width="216px" height="216px" viewBox="0 0 216 216" style="enable-background:new 0 0 216 216;" xml:space="preserve">
<style type="text/css">
	.st0{fill:#1A315B;}
	.st1{fill:#FFFFFF;}
</style>
<rect class="st0" width="216" height="216"/>
<path class="st1" d="M23.5,66.5c0-0.2,0.2-0.7,0.7-0.7h3c0.2,0,0.7,0.2,0.7,0.7v17.6h7.8c0.5,0,0.7,0.2,0.7,0.7v2.5
	c0,0.2-0.2,0.7-0.7,0.7H24.2c-0.5,0-0.7-0.2-0.7-0.7V66.5z"/>
<path class="st1" d="M40,66.5c0-0.2,0.2-0.7,0.7-0.7h3c0.5,0,0.7,0.2,0.7,0.7v12.8c0,2.7,1.8,4.8,4.6,4.8s4.6-2.1,4.6-4.8V66.5
	c0-0.2,0.2-0.7,0.7-0.7h3c0.2,0,0.7,0.2,0.7,0.7v13c0,4.8-3.9,8.7-8.7,8.7c-5,0-8.7-3.9-8.7-8.7v-13H40z"/>
<path class="st1" d="M64,66.5c0-0.2,0.2-0.7,0.5-0.7H72c6.2,0,11,5,11,11c0,6.2-5,11-11,11h-7.6c-0.2,0-0.5-0.2-0.5-0.7
	C64,87.1,64,66.5,64,66.5z M71.7,84.1c4.1,0,7.1-3,7.1-7.3c0-4.1-3-7.1-7.1-7.1h-3.7v14.4C68.1,84.1,71.7,84.1,71.7,84.1z"/>
<path class="st1" d="M85.9,66.8c-0.2-0.5,0.2-0.7,0.5-0.7h3c0.2,0,0.5,0.2,0.5,0.5L93,79.1h0.2l5-13c0-0.2,0.2-0.5,0.5-0.5h0.9
	c0.2,0,0.5,0.2,0.5,0.5l5,13h0.2l3.2-12.6c0-0.2,0.2-0.5,0.5-0.5h3c0.5,0,0.7,0.2,0.5,0.7l-5.9,21c0,0.2-0.2,0.5-0.5,0.5h-0.5
	c-0.2,0-0.5-0.2-0.5-0.5l-5.7-14.2h-0.2l-5.5,14.2c0,0.2-0.2,0.5-0.5,0.5h-0.5c-0.2,0-0.5-0.2-0.5-0.5L85.9,66.8z"/>
<path class="st1" d="M118.2,66.5c0-0.2,0.2-0.7,0.7-0.7h3c0.2,0,0.7,0.2,0.7,0.7v20.8c0,0.2-0.2,0.7-0.7,0.7h-3
	c-0.2,0-0.7-0.2-0.7-0.7V66.5z"/>
<path class="st1" d="M139.4,65.6c2.7,0,5.5,1.1,7.8,3c0.2,0.2,0.2,0.7,0,0.9l-2.1,2.1c-0.2,0.2-0.5,0.2-0.9,0
	c-1.4-1.1-3-1.8-4.8-1.8c-3.9,0-7.1,3.4-7.1,7.3s3.2,7.3,7.1,7.3c1.8,0,3.2-0.5,3.7-0.7v-3h-2.3c-0.5,0-0.7-0.2-0.7-0.5v-2.5
	c0-0.5,0.2-0.7,0.7-0.7h5.9c0.2,0,0.5,0.2,0.5,0.7v8c0,0.2-0.2,0.5-0.2,0.5s-3.2,2.1-7.8,2.1c-6.2,0-11.2-5-11.2-11.2
	C128,70.6,133,65.6,139.4,65.6"/>
<path class="st1" d="M33.3,96.7c3.2,0,5.5,0.9,7.6,3c0.2,0.2,0.2,0.7,0,0.9l-1.8,2.1c-0.2,0.2-0.5,0.2-0.7,0
	c-1.4-1.1-3.2-1.8-4.8-1.8c-4.1,0-7.1,3.4-7.1,7.3c0,3.9,3,7.3,7.1,7.3c1.8,0,3.4-0.7,4.8-1.8c0.2-0.2,0.7-0.2,0.7,0l2.1,2.1
	c0.2,0.2,0.2,0.7,0,0.9c-2.1,2.1-4.8,3-7.6,3c-6.4,0-11.4-5-11.4-11.2C21.9,102,26.9,96.7,33.3,96.7"/>
<path class="st1" d="M44.8,118.4l9.8-21.3c0-0.2,0.2-0.5,0.5-0.5h0.2c0.2,0,0.5,0.2,0.5,0.5l9.6,21.3c0.2,0.5,0,0.9-0.5,0.9h-2.7
	c-0.5,0-0.7-0.2-0.9-0.7l-1.6-3.4h-9.4l-1.6,3.4c-0.2,0.2-0.5,0.7-0.9,0.7H45C44.8,119.1,44.5,118.7,44.8,118.4 M58.2,111.6
	l-3.2-6.9l0,0l-3.2,6.9H58.2z"/>
<path class="st1" d="M70.6,97.4c0-0.2,0.2-0.5,0.7-0.5H72l13,13.9l0,0V97.6c0-0.2,0.2-0.7,0.7-0.7h3c0.2,0,0.7,0.2,0.7,0.7v21.3
	c0,0.2-0.2,0.5-0.7,0.5H88l-13.3-14.4l0,0v13.5c0,0.2-0.2,0.7-0.7,0.7h-3c-0.2,0-0.7-0.2-0.7-0.7v-21H70.6z"/>
<path class="st1" d="M106.5,96.7c3.2,0,5.5,0.9,7.6,3c0.2,0.2,0.2,0.7,0,0.9l-1.8,2.1c-0.2,0.2-0.5,0.2-0.7,0
	c-1.4-1.1-3-1.8-4.8-1.8c-4.1,0-7.1,3.4-7.1,7.3c0,3.9,3,7.3,7.1,7.3c1.8,0,3.4-0.7,4.8-1.8c0.2-0.2,0.7-0.2,0.7,0l2.1,2.1
	c0.2,0.2,0.2,0.7,0,0.9c-2.1,2.1-4.8,3-7.6,3c-6.4,0-11.4-5-11.4-11.2C95.1,102,100.1,96.7,106.5,96.7"/>
<path class="st1" d="M120,97.6c0-0.2,0.2-0.7,0.7-0.7h12.8c0.5,0,0.7,0.2,0.7,0.7v2.5c0,0.2-0.2,0.7-0.7,0.7h-9.4v5.3h7.8
	c0.2,0,0.7,0.2,0.7,0.7v2.5c0,0.5-0.2,0.7-0.7,0.7h-7.8v5.5h9.4c0.5,0,0.7,0.2,0.7,0.7v2.5c0,0.2-0.2,0.7-0.7,0.7h-12.8
	c-0.5,0-0.7-0.2-0.7-0.7V97.6z"/>
<path class="st1" d="M140.6,97.6c0-0.2,0.2-0.7,0.7-0.7h8.9c3.9,0,6.9,3,6.9,6.9c0,3-1.8,5.3-4.6,6.4l4.4,8c0.2,0.5,0,0.9-0.5,0.9
	h-3.2c-0.2,0-0.5-0.2-0.5-0.2l-4.1-8.2h-3.4v8c0,0.2-0.2,0.7-0.7,0.7h-3c-0.5,0-0.7-0.2-0.7-0.7v-21L140.6,97.6L140.6,97.6z
	 M149.7,107.2c1.6,0,3.2-1.4,3.2-3.2c0-1.6-1.4-3-3.2-3h-5v6.2H149.7z"/>
<path class="st1" d="M23.5,128.9c0-0.2,0.2-0.7,0.7-0.7h8.9c3.9,0,6.9,3,6.9,6.9c0,3-1.8,5.3-4.6,6.4l4.3,8c0.2,0.5,0,0.9-0.5,0.9
	h-3.4c-0.2,0-0.5-0.2-0.5-0.2l-4.3-8.5h-3.4v8c0,0.2-0.2,0.7-0.7,0.7h-2.7c-0.5,0-0.7-0.2-0.7-0.7V128.9z M32.9,138.3
	c1.6,0,3.2-1.4,3.2-3.2c0-1.6-1.4-3-3.2-3h-5.3v6.2H32.9z"/>
<path class="st1" d="M45.9,128.9c0-0.2,0.2-0.7,0.7-0.7h12.8c0.5,0,0.7,0.2,0.7,0.7v2.5c0,0.2-0.2,0.7-0.7,0.7H50v5.3h7.8
	c0.2,0,0.7,0.2,0.7,0.7v2.5c0,0.5-0.2,0.7-0.7,0.7H50v5.5h9.4c0.5,0,0.7,0.2,0.7,0.7v2.5c0,0.2-0.2,0.7-0.7,0.7H46.6
	c-0.5,0-0.7-0.2-0.7-0.7C45.9,150,45.9,128.9,45.9,128.9z"/>
<path class="st1" d="M65.3,147.2l1.1-2.1c0.2-0.5,0.7-0.5,1.1-0.2c0.2,0,2.7,2.1,4.8,2.1c1.6,0,3-1.1,3-2.5c0-1.6-1.4-2.7-3.9-3.9
	c-3-1.1-5.9-3-5.9-6.9c0-2.7,2.1-5.9,7.1-5.9c3.2,0,5.7,1.6,6.4,2.1c0.2,0.2,0.5,0.7,0.2,1.1l-1.1,1.8c-0.2,0.5-0.7,0.7-1.1,0.5
	c-0.2-0.2-2.7-1.8-4.3-1.8c-1.8,0-2.7,1.1-2.7,2.3c0,1.4,1.1,2.5,3.7,3.4c3,1.1,6.6,3,6.6,7.1c0,3.2-2.7,6.2-7.3,6.2
	c-3.9,0-6.4-1.8-6.9-2.5C65.1,147.9,64.9,147.7,65.3,147.2"/>
<path class="st1" d="M85.5,128.9c0-0.2,0.2-0.7,0.7-0.7H99c0.5,0,0.7,0.2,0.7,0.7v2.5c0,0.2-0.2,0.7-0.7,0.7h-9.4v5.3h7.8
	c0.2,0,0.7,0.2,0.7,0.7v2.5c0,0.5-0.2,0.7-0.7,0.7h-7.8v5.5H99c0.5,0,0.7,0.2,0.7,0.7v2.5c0,0.2-0.2,0.7-0.7,0.7h-13
	c-0.5,0-0.7-0.2-0.7-0.7v-21L85.5,128.9L85.5,128.9z"/>
<path class="st1" d="M103.8,149.5l9.8-21.3c0-0.2,0.2-0.5,0.5-0.5h0.2c0.2,0,0.5,0.2,0.5,0.5l9.6,21.3c0.2,0.5,0,0.9-0.5,0.9h-2.7
	c-0.5,0-0.7-0.2-0.9-0.7l-1.6-3.4h-9.4l-1.6,3.4c-0.2,0.2-0.5,0.7-0.9,0.7h-2.5C103.8,150.4,103.5,150,103.8,149.5 M117.2,142.9
	l-3.2-6.9l0,0l-3,6.9H117.2z"/>
<path class="st1" d="M129.6,128.9c0-0.2,0.2-0.7,0.7-0.7h8.9c3.9,0,6.9,3,6.9,6.9c0,3-1.8,5.3-4.6,6.4l4.4,8c0.2,0.5,0,0.9-0.5,0.9
	h-3.2c-0.2,0-0.5-0.2-0.5-0.2l-4.1-8.2h-3.4v8c0,0.2-0.2,0.7-0.7,0.7h-3c-0.5,0-0.7-0.2-0.7-0.7v-21L129.6,128.9L129.6,128.9z
	 M138.8,138.3c1.6,0,3.2-1.4,3.2-3.2c0-1.6-1.4-3-3.2-3h-5v6.2H138.8z"/>
<path class="st1" d="M162.1,128c3.2,0,5.5,0.9,7.6,3c0.2,0.2,0.2,0.7,0,0.9l-1.8,2.1c-0.2,0.2-0.5,0.2-0.7,0c-1.4-1.1-3-1.8-4.8-1.8
	c-4.1,0-7.1,3.4-7.1,7.3s3,7.3,7.1,7.3c1.8,0,3.4-0.7,4.8-1.8c0.2-0.2,0.7-0.2,0.7,0l2.1,2.1c0.2,0.2,0.2,0.7,0,0.9
	c-2.1,2.1-4.8,3-7.6,3c-6.4,0-11.4-5-11.4-11.2C150.6,133.1,155.7,128,162.1,128"/>
<path class="st1" d="M175.3,128.9c0-0.2,0.2-0.7,0.7-0.7h3c0.5,0,0.7,0.2,0.7,0.7v8.5H190v-8.5c0-0.2,0.2-0.7,0.7-0.7h3
	c0.2,0,0.7,0.2,0.7,0.7v20.8c0,0.2-0.2,0.7-0.7,0.7h-3c-0.5,0-0.7-0.2-0.7-0.7v-8.7h-10.3v8.7c0,0.2-0.2,0.7-0.7,0.7h-3
	c-0.2,0-0.7-0.2-0.7-0.7V128.9z"/>
</svg>
